<?xml version="1.0" encoding="us-ascii" standalone="no"?><svg xmlns="http://www.w3.org/2000/svg" xmlns:xlink="http://www.w3.org/1999/xlink" contentStyleType="text/css" height="1664px" preserveAspectRatio="none" style="width:1692px;height:1664px;background:#FFFFFF;" version="1.1" viewBox="0 0 1692 1664" width="1692px" zoomAndPan="magnify"><defs/><g><rect fill="#FFA500" height="36.2969" rx="12.5" ry="12.5" style="stroke:#181818;stroke-width:1.5;" width="214" x="632" y="256.375"/><text fill="#000000" font-family="sans-serif" font-size="14" lengthAdjust="spacing" textLength="194" x="642" y="279.3701">The Essence Of Computing</text><rect fill="#ADD8E6" height="36.2969" rx="12.5" ry="12.5" style="stroke:#181818;stroke-width:1.5;" width="159" x="896" y="256.375"/><text fill="#000000" font-family="sans-serif" font-size="14" lengthAdjust="spacing" textLength="139" x="906" y="279.3701">Divide and Conquer</text><rect fill="#90EE90" height="36.2969" rx="12.5" ry="12.5" style="stroke:#181818;stroke-width:1.5;" width="305" x="1105" y="20"/><text fill="#000000" font-family="sans-serif" font-size="14" lengthAdjust="spacing" textLength="285" x="1115" y="42.9951">Principles: divide, conquer and combine</text><path d="M1055,274.5234 L1065,274.5234 C1080,274.5234 1080,38.1484 1095,38.1484 L1105,38.1484 " fill="none" style="stroke:#181818;stroke-width:1.0;"/><rect fill="#90EE90" height="36.2969" rx="12.5" ry="12.5" style="stroke:#181818;stroke-width:1.5;" width="200" x="1105" y="76.2969"/><text fill="#000000" font-family="sans-serif" font-size="14" lengthAdjust="spacing" textLength="180" x="1115" y="99.292">O(N^2) -&gt; O(NlogN) How?</text><path d="M1055,274.5234 L1065,274.5234 C1080,274.5234 1080,94.4453 1095,94.4453 L1105,94.4453 " fill="none" style="stroke:#181818;stroke-width:1.0;"/><rect fill="#90EE90" height="36.2969" rx="12.5" ry="12.5" style="stroke:#181818;stroke-width:1.5;" width="89" x="1105" y="159.3359"/><text fill="#000000" font-family="sans-serif" font-size="14" lengthAdjust="spacing" textLength="69" x="1115" y="182.3311">Examples</text><text fill="#000000" font-family="sans-serif" font-size="14" lengthAdjust="spacing" textLength="80" x="1247" y="136.5889">Merge Sort</text><path d="M1194,177.4844 L1204,177.4844 C1219,177.4844 1219,131.7422 1234,131.7422 L1244,131.7422 " fill="none" style="stroke:#181818;stroke-width:1.0;"/><text fill="#000000" font-family="sans-serif" font-size="14" lengthAdjust="spacing" textLength="75" x="1247" y="154.8857">Quick Sort</text><path d="M1194,177.4844 L1204,177.4844 C1219,177.4844 1219,150.0391 1234,150.0391 L1244,150.0391 " fill="none" style="stroke:#181818;stroke-width:1.0;"/><text fill="#000000" font-family="sans-serif" font-size="14" lengthAdjust="spacing" textLength="122" x="1247" y="173.1826">Partition Method</text><path d="M1194,177.4844 L1204,177.4844 C1219,177.4844 1219,168.3359 1234,168.3359 L1244,168.3359 " fill="none" style="stroke:#181818;stroke-width:1.0;"/><text fill="#000000" font-family="sans-serif" font-size="14" lengthAdjust="spacing" textLength="234" x="1247" y="191.4795">Large Scale Metrix Multiplication</text><path d="M1194,177.4844 L1204,177.4844 C1219,177.4844 1219,186.6328 1234,186.6328 L1244,186.6328 " fill="none" style="stroke:#181818;stroke-width:1.0;"/><text fill="#000000" font-family="sans-serif" font-size="14" lengthAdjust="spacing" textLength="83" x="1247" y="209.7764">MapReduce</text><path d="M1194,177.4844 L1204,177.4844 C1219,177.4844 1219,204.9297 1234,204.9297 L1244,204.9297 " fill="none" style="stroke:#181818;stroke-width:1.0;"/><text fill="#000000" font-family="sans-serif" font-size="14" lengthAdjust="spacing" textLength="165" x="1247" y="228.0732">ML -&gt; DL: Google Brain</text><path d="M1194,177.4844 L1204,177.4844 C1219,177.4844 1219,223.2266 1234,223.2266 L1244,223.2266 " fill="none" style="stroke:#181818;stroke-width:1.0;"/><path d="M1055,274.5234 L1065,274.5234 C1080,274.5234 1080,177.4844 1095,177.4844 L1105,177.4844 " fill="none" style="stroke:#181818;stroke-width:1.0;"/><rect fill="#90EE90" height="36.2969" rx="12.5" ry="12.5" style="stroke:#181818;stroke-width:1.5;" width="88" x="1105" y="367.5625"/><text fill="#000000" font-family="sans-serif" font-size="14" lengthAdjust="spacing" textLength="68" x="1115" y="390.5576">Problems</text><rect fill="#F1F1F1" height="85.1875" rx="12.5" ry="12.5" style="stroke:#181818;stroke-width:1.5;" width="420" x="1243" y="242.375"/><text fill="#000000" font-family="sans-serif" font-size="14" lengthAdjust="spacing" textLength="396" x="1257" y="265.3701">Problem Select K largest numbers from a unsorted list.</text><ellipse cx="1258.5" cy="277.4688" fill="#000000" rx="2.5" ry="2.5" style="stroke:#000000;stroke-width:0.0;"/><text fill="#000000" font-family="sans-serif" font-size="14" lengthAdjust="spacing" textLength="220" x="1265" y="281.667">Quick Sort: O(NlogN), not good</text><ellipse cx="1258.5" cy="293.7656" fill="#000000" rx="2.5" ry="2.5" style="stroke:#000000;stroke-width:0.0;"/><text fill="#000000" font-family="sans-serif" font-size="14" lengthAdjust="spacing" textLength="246" x="1265" y="297.9639">Heap Sort: O(NlogK), K &lt;&lt; N, good</text><ellipse cx="1258.5" cy="310.0625" fill="#000000" rx="2.5" ry="2.5" style="stroke:#000000;stroke-width:0.0;"/><text fill="#000000" font-family="sans-serif" font-size="14" lengthAdjust="spacing" textLength="162" x="1265" y="314.2607">Partition Method: O(N)</text><path d="M1193,385.7109 L1203,385.7109 C1218,385.7109 1218,284.9688 1233,284.9688 L1243,284.9688 " fill="none" style="stroke:#181818;stroke-width:1.0;"/><rect fill="#F1F1F1" height="68.8906" rx="12.5" ry="12.5" style="stroke:#181818;stroke-width:1.5;" width="437" x="1243" y="347.5625"/><text fill="#000000" font-family="sans-serif" font-size="14" lengthAdjust="spacing" textLength="386" x="1257" y="370.5576">Problem Find the midium value of a huge unsorted list</text><ellipse cx="1258.5" cy="382.6563" fill="#000000" rx="2.5" ry="2.5" style="stroke:#000000;stroke-width:0.0;"/><text fill="#000000" font-family="sans-serif" font-size="14" lengthAdjust="spacing" textLength="405" x="1265" y="386.8545">Heap Sort: K = N/2, similar to O(NlogN), not good enough</text><ellipse cx="1258.5" cy="398.9531" fill="#000000" rx="2.5" ry="2.5" style="stroke:#000000;stroke-width:0.0;"/><text fill="#000000" font-family="sans-serif" font-size="14" lengthAdjust="spacing" textLength="206" x="1265" y="403.1514">Partition Method: O(N), good</text><path d="M1193,385.7109 L1203,385.7109 C1218,385.7109 1218,382.0078 1233,382.0078 L1243,382.0078 " fill="none" style="stroke:#181818;stroke-width:1.0;"/><rect fill="#F1F1F1" height="36.2969" rx="12.5" ry="12.5" style="stroke:#181818;stroke-width:1.5;" width="220" x="1243" y="436.4531"/><text fill="#000000" font-family="sans-serif" font-size="14" lengthAdjust="spacing" textLength="200" x="1253" y="459.4482">Distributed midian problem</text><path d="M1193,385.7109 L1203,385.7109 C1218,385.7109 1218,454.6016 1233,454.6016 L1243,454.6016 " fill="none" style="stroke:#181818;stroke-width:1.0;"/><rect fill="#F1F1F1" height="36.2969" rx="12.5" ry="12.5" style="stroke:#181818;stroke-width:1.5;" width="305" x="1243" y="492.75"/><text fill="#000000" font-family="sans-serif" font-size="14" lengthAdjust="spacing" textLength="285" x="1253" y="515.7451">Large Scale Metrix Inversion Operation?</text><path d="M1193,385.7109 L1203,385.7109 C1218,385.7109 1218,510.8984 1233,510.8984 L1243,510.8984 " fill="none" style="stroke:#181818;stroke-width:1.0;"/><path d="M1055,274.5234 L1065,274.5234 C1080,274.5234 1080,385.7109 1095,385.7109 L1105,385.7109 " fill="none" style="stroke:#181818;stroke-width:1.0;"/><path d="M846,274.5234 L856,274.5234 C871,274.5234 871,274.5234 886,274.5234 L896,274.5234 " fill="none" style="stroke:#181818;stroke-width:1.0;"/><rect fill="#ADD8E6" height="36.2969" rx="12.5" ry="12.5" style="stroke:#181818;stroke-width:1.5;" width="134" x="448" y="200.0781"/><text fill="#000000" font-family="sans-serif" font-size="14" lengthAdjust="spacing" textLength="110" x="458" y="223.0732">Concept of `O`</text><path d="M632,274.5234 L622,274.5234 C607,274.5234 607,218.2266 592,218.2266 L582,218.2266 " fill="none" style="stroke:#181818;stroke-width:1.0;"/><rect fill="#ADD8E6" height="36.2969" rx="12.5" ry="12.5" style="stroke:#181818;stroke-width:1.5;" width="282" x="300" y="256.375"/><text fill="#000000" font-family="sans-serif" font-size="14" lengthAdjust="spacing" textLength="262" x="310" y="279.3701">Recurrence (Iteration) v.s. Recursion</text><rect fill="#90EE90" height="150.375" rx="12.5" ry="12.5" style="stroke:#181818;stroke-width:1.5;" width="240" x="10" y="199.3359"/><text fill="#000000" font-family="sans-serif" font-size="14" lengthAdjust="spacing" textLength="69" x="24" y="222.3311">Examples</text><ellipse cx="25.5" cy="234.4297" fill="#000000" rx="2.5" ry="2.5" style="stroke:#000000;stroke-width:0.0;"/><text fill="#000000" font-family="sans-serif" font-size="14" lengthAdjust="spacing" textLength="185" x="32" y="238.6279">How to make sure get 20?</text><ellipse cx="25.5" cy="250.7266" fill="#000000" rx="2.5" ry="2.5" style="stroke:#000000;stroke-width:0.0;"/><text fill="#000000" font-family="sans-serif" font-size="14" lengthAdjust="spacing" textLength="107" x="32" y="254.9248">Steps Problem</text><ellipse cx="25.5" cy="267.0234" fill="#000000" rx="2.5" ry="2.5" style="stroke:#000000;stroke-width:0.0;"/><text fill="#000000" font-family="sans-serif" font-size="14" lengthAdjust="spacing" textLength="105" x="32" y="271.2217">Hanoi Problem</text><ellipse cx="25.5" cy="283.3203" fill="#000000" rx="2.5" ry="2.5" style="stroke:#000000;stroke-width:0.0;"/><text fill="#000000" font-family="sans-serif" font-size="14" lengthAdjust="spacing" textLength="137" x="32" y="287.5186">8 Queens Problem?</text><ellipse cx="25.5" cy="299.6172" fill="#000000" rx="2.5" ry="2.5" style="stroke:#000000;stroke-width:0.0;"/><text fill="#000000" font-family="sans-serif" font-size="14" lengthAdjust="spacing" textLength="99" x="32" y="303.8154">Tree Traverse</text><ellipse cx="25.5" cy="315.9141" fill="#000000" rx="2.5" ry="2.5" style="stroke:#000000;stroke-width:0.0;"/><text fill="#000000" font-family="sans-serif" font-size="14" lengthAdjust="spacing" textLength="79" x="32" y="320.1123">Caculator ?</text><ellipse cx="25.5" cy="332.2109" fill="#000000" rx="2.5" ry="2.5" style="stroke:#000000;stroke-width:0.0;"/><text fill="#000000" font-family="sans-serif" font-size="14" lengthAdjust="spacing" textLength="208" x="32" y="336.4092">Embeded: Natrual Language?</text><path d="M300,274.5234 L290,274.5234 C275,274.5234 275,274.5234 260,274.5234 L250,274.5234 " fill="none" style="stroke:#181818;stroke-width:1.0;"/><path d="M632,274.5234 L622,274.5234 C607,274.5234 607,274.5234 592,274.5234 L582,274.5234 " fill="none" style="stroke:#181818;stroke-width:1.0;"/><rect fill="#ADD8E6" height="36.2969" rx="12.5" ry="12.5" style="stroke:#181818;stroke-width:1.5;" width="119" x="463" y="312.6719"/><text fill="#000000" font-family="sans-serif" font-size="14" lengthAdjust="spacing" textLength="95" x="473" y="335.667">Classification</text><path d="M632,274.5234 L622,274.5234 C607,274.5234 607,330.8203 592,330.8203 L582,330.8203 " fill="none" style="stroke:#181818;stroke-width:1.0;"/><rect fill="#FFA500" height="36.2969" rx="12.5" ry="12.5" style="stroke:#181818;stroke-width:1.5;" width="49" x="10" y="549.0469"/><text fill="#000000" font-family="sans-serif" font-size="14" lengthAdjust="spacing" textLength="29" x="20" y="572.042">sort</text><rect fill="#FFA500" height="36.2969" rx="12.5" ry="12.5" style="stroke:#181818;stroke-width:1.5;" width="51" x="611" y="746.8281"/><text fill="#000000" font-family="sans-serif" font-size="14" lengthAdjust="spacing" textLength="31" x="621" y="769.8232">tree</text><rect fill="#ADD8E6" height="36.2969" rx="12.5" ry="12.5" style="stroke:#181818;stroke-width:1.5;" width="82" x="712" y="666.0859"/><text fill="#000000" font-family="sans-serif" font-size="14" lengthAdjust="spacing" textLength="62" x="722" y="689.0811">Traverse</text><rect fill="#90EE90" height="85.1875" rx="12.5" ry="12.5" style="stroke:#181818;stroke-width:1.5;" width="106" x="844" y="605.3438"/><text fill="#000000" font-family="sans-serif" font-size="14" lengthAdjust="spacing" textLength="82" x="858" y="628.3389">Depth First</text><ellipse cx="859.5" cy="640.4375" fill="#000000" rx="2.5" ry="2.5" style="stroke:#000000;stroke-width:0.0;"/><text fill="#000000" font-family="sans-serif" font-size="14" lengthAdjust="spacing" textLength="64" x="866" y="644.6357">preorder</text><ellipse cx="859.5" cy="656.7344" fill="#000000" rx="2.5" ry="2.5" style="stroke:#000000;stroke-width:0.0;"/><text fill="#000000" font-family="sans-serif" font-size="14" lengthAdjust="spacing" textLength="52" x="866" y="660.9326">inorder</text><ellipse cx="859.5" cy="673.0313" fill="#000000" rx="2.5" ry="2.5" style="stroke:#000000;stroke-width:0.0;"/><text fill="#000000" font-family="sans-serif" font-size="14" lengthAdjust="spacing" textLength="72" x="866" y="677.2295">postorder</text><path d="M794,684.2344 L804,684.2344 C819,684.2344 819,647.9375 834,647.9375 L844,647.9375 " fill="none" style="stroke:#181818;stroke-width:1.0;"/><rect fill="#90EE90" height="52.5938" rx="12.5" ry="12.5" style="stroke:#181818;stroke-width:1.5;" width="118" x="844" y="710.5313"/><text fill="#000000" font-family="sans-serif" font-size="14" lengthAdjust="spacing" textLength="94" x="858" y="733.5264">Breadth First</text><ellipse cx="859.5" cy="745.625" fill="#000000" rx="2.5" ry="2.5" style="stroke:#000000;stroke-width:0.0;"/><text fill="#000000" font-family="sans-serif" font-size="14" lengthAdjust="spacing" textLength="45" x="866" y="749.8232">Queue</text><path d="M794,684.2344 L804,684.2344 C819,684.2344 819,736.8281 834,736.8281 L844,736.8281 " fill="none" style="stroke:#181818;stroke-width:1.0;"/><path d="M662,764.9766 L672,764.9766 C687,764.9766 687,684.2344 702,684.2344 L712,684.2344 " fill="none" style="stroke:#181818;stroke-width:1.0;"/><rect fill="#ADD8E6" height="36.2969" rx="12.5" ry="12.5" style="stroke:#181818;stroke-width:1.5;" width="63" x="712" y="835.7188"/><text fill="#000000" font-family="sans-serif" font-size="14" lengthAdjust="spacing" textLength="43" x="722" y="858.7139">Types</text><rect fill="#90EE90" height="36.2969" rx="12.5" ry="12.5" style="stroke:#181818;stroke-width:1.5;" width="102" x="825" y="783.125"/><text fill="#000000" font-family="sans-serif" font-size="14" lengthAdjust="spacing" textLength="82" x="835" y="806.1201">Binary Tree</text><path d="M775,853.8672 L785,853.8672 C800,853.8672 800,801.2734 815,801.2734 L825,801.2734 " fill="none" style="stroke:#181818;stroke-width:1.0;"/><rect fill="#90EE90" height="85.1875" rx="12.5" ry="12.5" style="stroke:#181818;stroke-width:1.5;" width="90" x="825" y="839.4219"/><text fill="#000000" font-family="sans-serif" font-size="14" lengthAdjust="spacing" textLength="52" x="839" y="862.417">N Tree.</text><ellipse cx="840.5" cy="874.5156" fill="#000000" rx="2.5" ry="2.5" style="stroke:#000000;stroke-width:0.0;"/><text fill="#000000" font-family="sans-serif" font-size="14" lengthAdjust="spacing" textLength="47" x="847" y="878.7139">B Tree</text><ellipse cx="840.5" cy="890.8125" fill="#000000" rx="2.5" ry="2.5" style="stroke:#000000;stroke-width:0.0;"/><text fill="#000000" font-family="sans-serif" font-size="14" lengthAdjust="spacing" textLength="58" x="847" y="895.0107">B+ Tree</text><ellipse cx="840.5" cy="907.1094" fill="#000000" rx="2.5" ry="2.5" style="stroke:#000000;stroke-width:0.0;"/><text fill="#000000" font-family="sans-serif" font-size="14" lengthAdjust="spacing" textLength="54" x="847" y="911.3076">B* Tree</text><path d="M775,853.8672 L785,853.8672 C800,853.8672 800,882.0156 815,882.0156 L825,882.0156 " fill="none" style="stroke:#181818;stroke-width:1.0;"/><path d="M662,764.9766 L672,764.9766 C687,764.9766 687,853.8672 702,853.8672 L712,853.8672 " fill="none" style="stroke:#181818;stroke-width:1.0;"/><rect fill="#ADD8E6" height="36.2969" rx="12.5" ry="12.5" style="stroke:#181818;stroke-width:1.5;" width="135" x="426" y="746.8281"/><text fill="#000000" font-family="sans-serif" font-size="14" lengthAdjust="spacing" textLength="115" x="436" y="769.8232">Catalan Number</text><text fill="#000000" font-family="sans-serif" font-size="14" lengthAdjust="spacing" textLength="363" x="10" y="769.8232">How many full binary Tree with N leaf node totally?</text><path d="M426,764.9766 L416,764.9766 C401,764.9766 401,764.9766 386,764.9766 L376,764.9766 " fill="none" style="stroke:#181818;stroke-width:1.0;"/><path d="M611,764.9766 L601,764.9766 C586,764.9766 586,764.9766 571,764.9766 L561,764.9766 " fill="none" style="stroke:#181818;stroke-width:1.0;"/><rect fill="#FFA500" height="36.2969" rx="12.5" ry="12.5" style="stroke:#181818;stroke-width:1.5;" width="150" x="10" y="1247.207"/><text fill="#000000" font-family="sans-serif" font-size="14" lengthAdjust="spacing" textLength="130" x="20" y="1270.2021">Graph (Chapter 5)</text><rect fill="#ADD8E6" height="36.2969" rx="12.5" ry="12.5" style="stroke:#181818;stroke-width:1.5;" width="105" x="210" y="944.6094"/><text fill="#000000" font-family="sans-serif" font-size="14" lengthAdjust="spacing" textLength="85" x="220" y="967.6045">Abstraction</text><text fill="#000000" font-family="sans-serif" font-size="14" lengthAdjust="spacing" textLength="160" x="368" y="967.6045">Seven Bridge Problem</text><path d="M315,962.7578 L325,962.7578 C340,962.7578 340,962.7578 355,962.7578 L365,962.7578 " fill="none" style="stroke:#181818;stroke-width:1.0;"/><path d="M160,1265.3555 L170,1265.3555 C185,1265.3555 185,962.7578 200,962.7578 L210,962.7578 " fill="none" style="stroke:#181818;stroke-width:1.0;"/><rect fill="#ADD8E6" height="36.2969" rx="12.5" ry="12.5" style="stroke:#181818;stroke-width:1.5;" width="88" x="210" y="1275.3555"/><text fill="#000000" font-family="sans-serif" font-size="14" lengthAdjust="spacing" textLength="68" x="220" y="1298.3506">Problems</text><rect fill="#90EE90" height="36.2969" rx="12.5" ry="12.5" style="stroke:#181818;stroke-width:1.5;" width="177" x="348" y="1122.3906"/><text fill="#000000" font-family="sans-serif" font-size="14" lengthAdjust="spacing" textLength="157" x="358" y="1145.3857">Connectivity Problem</text><rect fill="#F1F1F1" height="68.8906" rx="12.5" ry="12.5" style="stroke:#181818;stroke-width:1.5;" width="134" x="575" y="1000.9063"/><text fill="#000000" font-family="sans-serif" font-size="14" lengthAdjust="spacing" textLength="110" x="589" y="1023.9014">Graph Traverse</text><ellipse cx="590.5" cy="1036" fill="#000000" rx="2.5" ry="2.5" style="stroke:#000000;stroke-width:0.0;"/><text fill="#000000" font-family="sans-serif" font-size="14" lengthAdjust="spacing" textLength="91" x="597" y="1040.1982">Deepth First</text><ellipse cx="590.5" cy="1052.2969" fill="#000000" rx="2.5" ry="2.5" style="stroke:#000000;stroke-width:0.0;"/><text fill="#000000" font-family="sans-serif" font-size="14" lengthAdjust="spacing" textLength="94" x="597" y="1056.4951">Breadth First</text><path d="M525,1140.5391 L535,1140.5391 C550,1140.5391 550,1035.3516 565,1035.3516 L575,1035.3516 " fill="none" style="stroke:#181818;stroke-width:1.0;"/><rect fill="#F1F1F1" height="36.2969" rx="12.5" ry="12.5" style="stroke:#181818;stroke-width:1.5;" width="204" x="575" y="1089.7969"/><text fill="#000000" font-family="sans-serif" font-size="14" lengthAdjust="spacing" textLength="184" x="585" y="1112.792">Spanning Tree and Forest</text><path d="M525,1140.5391 L535,1140.5391 C550,1140.5391 550,1107.9453 565,1107.9453 L575,1107.9453 " fill="none" style="stroke:#181818;stroke-width:1.0;"/><rect fill="#F1F1F1" height="134.0781" rx="12.5" ry="12.5" style="stroke:#181818;stroke-width:1.5;" width="277" x="575" y="1146.0938"/><text fill="#000000" font-family="sans-serif" font-size="14" lengthAdjust="spacing" textLength="253" x="589" y="1169.0889">Engineering Web Cralwer Problems</text><ellipse cx="590.5" cy="1181.1875" fill="#000000" rx="2.5" ry="2.5" style="stroke:#000000;stroke-width:0.0;"/><text fill="#000000" font-family="sans-serif" font-size="14" lengthAdjust="spacing" textLength="115" x="597" y="1185.3857">Graph Direction</text><ellipse cx="590.5" cy="1197.4844" fill="#000000" rx="2.5" ry="2.5" style="stroke:#000000;stroke-width:0.0;"/><text fill="#000000" font-family="sans-serif" font-size="14" lengthAdjust="spacing" textLength="168" x="597" y="1201.6826">Nodes Non-enumerable</text><ellipse cx="590.5" cy="1213.7813" fill="#000000" rx="2.5" ry="2.5" style="stroke:#000000;stroke-width:0.0;"/><text fill="#000000" font-family="sans-serif" font-size="14" lengthAdjust="spacing" textLength="186" x="597" y="1217.9795">Nodes and Links Changing</text><ellipse cx="590.5" cy="1230.0781" fill="#000000" rx="2.5" ry="2.5" style="stroke:#000000;stroke-width:0.0;"/><text fill="#000000" font-family="sans-serif" font-size="14" lengthAdjust="spacing" textLength="38" x="597" y="1234.2764">Scale</text><ellipse cx="590.5" cy="1246.375" fill="#000000" rx="2.5" ry="2.5" style="stroke:#000000;stroke-width:0.0;"/><text fill="#000000" font-family="sans-serif" font-size="14" lengthAdjust="spacing" textLength="64" x="597" y="1250.5732">Currency</text><ellipse cx="590.5" cy="1262.6719" fill="#000000" rx="2.5" ry="2.5" style="stroke:#000000;stroke-width:0.0;"/><text fill="#000000" font-family="sans-serif" font-size="14" lengthAdjust="spacing" textLength="189" x="597" y="1266.8701">Network Speed Limitation</text><path d="M525,1140.5391 L535,1140.5391 C550,1140.5391 550,1213.1328 565,1213.1328 L575,1213.1328 " fill="none" style="stroke:#181818;stroke-width:1.0;"/><path d="M298,1293.5039 L308,1293.5039 C323,1293.5039 323,1140.5391 338,1140.5391 L348,1140.5391 " fill="none" style="stroke:#181818;stroke-width:1.0;"/><rect fill="#90EE90" height="36.2969" rx="12.5" ry="12.5" style="stroke:#181818;stroke-width:1.5;" width="185" x="348" y="1350.543"/><text fill="#000000" font-family="sans-serif" font-size="14" lengthAdjust="spacing" textLength="165" x="358" y="1373.5381">Shortest Path Problem</text><rect fill="#F1F1F1" height="36.2969" rx="12.5" ry="12.5" style="stroke:#181818;stroke-width:1.5;" width="152" x="583" y="1344.6172"/><text fill="#000000" font-family="sans-serif" font-size="14" lengthAdjust="spacing" textLength="132" x="593" y="1367.6123">Dijkstra Alogrithm</text><rect fill="#F1F1F1" height="68.8906" rx="12.5" ry="12.5" style="stroke:#181818;stroke-width:1.5;" width="370" x="785" y="1300.1719"/><text fill="#000000" font-family="sans-serif" font-size="14" lengthAdjust="spacing" textLength="122" x="799" y="1323.167">Spell Correction.</text><ellipse cx="800.5" cy="1335.2656" fill="#000000" rx="2.5" ry="2.5" style="stroke:#000000;stroke-width:0.0;"/><text fill="#000000" font-family="sans-serif" font-size="14" lengthAdjust="spacing" textLength="290" x="807" y="1339.4639">Edit Distance = The smallest difference.</text><ellipse cx="800.5" cy="1351.5625" fill="#000000" rx="2.5" ry="2.5" style="stroke:#000000;stroke-width:0.0;"/><text fill="#000000" font-family="sans-serif" font-size="14" lengthAdjust="spacing" textLength="338" x="807" y="1355.7607">Equal to the shorted path of 2 nodes in a graph</text><path d="M735,1362.7656 L745,1362.7656 C760,1362.7656 760,1334.6172 775,1334.6172 L785,1334.6172 " fill="none" style="stroke:#181818;stroke-width:1.0;"/><rect fill="#F1F1F1" height="36.2969" rx="12.5" ry="12.5" style="stroke:#181818;stroke-width:1.5;" width="270" x="785" y="1389.0625"/><text fill="#000000" font-family="sans-serif" font-size="14" lengthAdjust="spacing" textLength="250" x="795" y="1412.0576">Global Shortest v.s. Local Shortest</text><path d="M735,1362.7656 L745,1362.7656 C760,1362.7656 760,1407.2109 775,1407.2109 L785,1407.2109 " fill="none" style="stroke:#181818;stroke-width:1.0;"/><path d="M533,1368.6914 L543,1368.6914 C558,1368.6914 558,1362.7656 573,1362.7656 L583,1362.7656 " fill="none" style="stroke:#181818;stroke-width:1.0;"/><rect fill="#F1F1F1" height="36.2969" rx="12.5" ry="12.5" style="stroke:#181818;stroke-width:1.5;" width="52" x="583" y="1400.9141"/><text fill="#000000" font-family="sans-serif" font-size="14" lengthAdjust="spacing" textLength="32" x="593" y="1423.9092">DAG</text><path d="M533,1368.6914 L543,1368.6914 C558,1368.6914 558,1419.0625 573,1419.0625 L583,1419.0625 " fill="none" style="stroke:#181818;stroke-width:1.0;"/><path d="M298,1293.5039 L308,1293.5039 C323,1293.5039 323,1368.6914 338,1368.6914 L348,1368.6914 " fill="none" style="stroke:#181818;stroke-width:1.0;"/><rect fill="#90EE90" height="36.2969" rx="12.5" ry="12.5" style="stroke:#181818;stroke-width:1.5;" width="190" x="348" y="1493.5078"/><text fill="#000000" font-family="sans-serif" font-size="14" lengthAdjust="spacing" textLength="170" x="358" y="1516.5029">Max Capability Problem</text><rect fill="#F1F1F1" height="36.2969" rx="12.5" ry="12.5" style="stroke:#181818;stroke-width:1.5;" width="203" x="588" y="1457.2109"/><text fill="#000000" font-family="sans-serif" font-size="14" lengthAdjust="spacing" textLength="183" x="598" y="1480.2061">Ford-Fulkerson Algorithm</text><path d="M538,1511.6563 L548,1511.6563 C563,1511.6563 563,1475.3594 578,1475.3594 L588,1475.3594 " fill="none" style="stroke:#181818;stroke-width:1.0;"/><rect fill="#F1F1F1" height="52.5938" rx="12.5" ry="12.5" style="stroke:#181818;stroke-width:1.5;" width="165" x="588" y="1513.5078"/><text fill="#000000" font-family="sans-serif" font-size="14" lengthAdjust="spacing" textLength="141" x="602" y="1536.5029">Max Match Problem</text><ellipse cx="603.5" cy="1548.6016" fill="#000000" rx="2.5" ry="2.5" style="stroke:#000000;stroke-width:0.0;"/><text fill="#000000" font-family="sans-serif" font-size="14" lengthAdjust="spacing" textLength="113" x="610" y="1552.7998">Bipartite Graph</text><path d="M538,1511.6563 L548,1511.6563 C563,1511.6563 563,1539.8047 578,1539.8047 L588,1539.8047 " fill="none" style="stroke:#181818;stroke-width:1.0;"/><path d="M298,1293.5039 L308,1293.5039 C323,1293.5039 323,1511.6563 338,1511.6563 L348,1511.6563 " fill="none" style="stroke:#181818;stroke-width:1.0;"/><rect fill="#90EE90" height="36.2969" rx="12.5" ry="12.5" style="stroke:#181818;stroke-width:1.5;" width="187" x="348" y="1549.8047"/><text fill="#000000" font-family="sans-serif" font-size="14" lengthAdjust="spacing" textLength="167" x="358" y="1572.7998">Map Colouring Problem</text><path d="M298,1293.5039 L308,1293.5039 C323,1293.5039 323,1567.9531 338,1567.9531 L348,1567.9531 " fill="none" style="stroke:#181818;stroke-width:1.0;"/><path d="M160,1265.3555 L170,1265.3555 C185,1265.3555 185,1293.5039 200,1293.5039 L210,1293.5039 " fill="none" style="stroke:#181818;stroke-width:1.0;"/><rect fill="#FFA500" height="36.2969" rx="12.5" ry="12.5" style="stroke:#181818;stroke-width:1.5;" width="62" x="10" y="1606.1016"/><text fill="#000000" font-family="sans-serif" font-size="14" lengthAdjust="spacing" textLength="42" x="20" y="1629.0967">Stock</text><!--SRC=[VLPHSzeu47xthzYPlW09NClrRZgalJG1ahO1aWj9xw7JIuMz61LPScMPX7z_kx816vXxyTZIhdRtssy_-MFcX7M9r54YqY0u-VRAMA5Z_0uF2uHXbg4E4Mxdq3T9cZkfuo1ejx-zKZ9Uk9dAoR1lo2HrOERmu_O7q24djVs1NCa8GUY8JN_bQCbYOn9RHFqTxgpKeKmLPZs8lFqfX8MnTmnDCfCQWrQhLNUyRKp-xJQX_HU_AHDFcl39F9yVHXY-Y8JFvvsJ9nYZZH6cnhfouUzSXilgmXtX8fqqccpTmaJbyaXunr0ev0qhNs2SAqUvor2m-IQ0IEynoaFSV8yuoS6e1zV6nEHyQONKnv0mCuL9ngMsUfjFcAB2qC4DA8wVET1vCaERmToQ10JaEgFKCG8bCzS9MW2LYdfRS4v16mUneNBOv1EAj6PnGnOtyFuzJ4vtLlj8UEFcsLw6LyGXS4IQH4OoJs0bgFjC2W6Bd22hPRWV_GO-mEItxYbaCf5K8ZXp96T0RV9uyJz95LaNgH7nCkhFBEUWd9JGa1R95lj7MlbPhmXKFlKsHUlxUHu42kUECeim2BRyAxXzZs5khP-HncTNUZHXrSawnHwVTS3QtewDBQOhLvk89KAMMuGO7NHVdzFMr66QRG1cKw6Dh7o_enxJULiJzdcW2FGGN0VD2_H5c2lXZ0NU7H9f8YIm9iBPN2Z2GCUvYF7yxA2slX9P9kSbhQ4c3jpAseAZi45WsViuKhkK3i0Oa7eiY3-sv4LgqTY8P88_fDwzfoPp_klio2cN5aLKEuV0oV6mheTrYjcXabnABUpQutVaz8dVw80_-BAqujUJodk1_bcLCFkO2YSKyN3YfvVZF7a294AlOPuh1RDT6l0igPu9A1HpcW7IK6V8NQtFQz1VMv4keD5VY9GO27yqgstOYtynev4GeIjP-KIwia9DsCc8Hc7BhBfJLPBgc96UQv8b4cothdYpB1HPLOWum5gRQ-qg1tQQ2gtfYYcgPzs_CXRPt1yvr37T0MZPuX-SGTyAzKmLx_8hemwanR96c11k6Jrr6qaoQKB9TBlC8KPIBpCWzFZqcAUE1O4dfvZiDVTyWkxPM5BJ595T4kdyL7XsxO4oNR3EaKJV2QglYWebzdF93O0BKZPBtItMgJOwc9hVDxRCt3Dj64ddLKomm7pmLtAM40Fuz4ZEv-YbX-L- -8kdcNI45JXR54gRSWAam5tFdencYSGuPeWAm0alPMRajqtP2zV8X9MrClEBwoEbZiKBKJeLCwds6S2jYzfNkLfI_qa-BbHiTXNtlEjOkB2248rWwbKTYpwU7OsO4ahAv9u56zVQF4oT2PT1y17fdsRpNtD7G-SUwGxUoFkRJlTrz_VEcxSpTABRUDHBRPur_sUaagu39nDi1ethkn59NMu9_MXpcR301r_4Ii1zhjck1_pLU1WtOJhSB19PLz8QdQ1smPUluyA8PjrDK-EyyPzlsvVKtobQIWg-ZeC1pWNzIf1hQ28ghmUF3rVjTy56etjq_mLzGm7iclQc_m40]--></g></svg>