<?xml version="1.0" encoding="us-ascii" standalone="no"?><svg xmlns="http://www.w3.org/2000/svg" xmlns:xlink="http://www.w3.org/1999/xlink" contentStyleType="text/css" height="669px" preserveAspectRatio="none" style="width:1139px;height:669px;background:#FFFFFF;" version="1.1" viewBox="0 0 1139 669" width="1139px" zoomAndPan="magnify"><defs/><g><rect fill="#F1F1F1" height="36.2969" rx="12.5" ry="12.5" style="stroke:#181818;stroke-width:1.5;" width="174" x="593" y="315.5586"/><text fill="#000000" font-family="sans-serif" font-size="14" lengthAdjust="spacing" textLength="150" x="603" y="338.5537">E-commerce System</text><rect fill="#F0F8FF" height="36.2969" rx="12.5" ry="12.5" style="stroke:#181818;stroke-width:1.5;" width="117" x="817" y="259.2617"/><text fill="#000000" font-family="sans-serif" font-size="14" lengthAdjust="spacing" textLength="97" x="827" y="282.2568">Obvervability</text><rect fill="#F0F8FF" height="36.2969" rx="12.5" ry="12.5" style="stroke:#181818;stroke-width:1.5;" width="46" x="984" y="202.9648"/><text fill="#000000" font-family="sans-serif" font-size="14" lengthAdjust="spacing" textLength="26" x="994" y="225.96">Log</text><path d="M934,277.4102 L944,277.4102 C959,277.4102 959,221.1133 974,221.1133 L984,221.1133 " fill="none" style="stroke:#181818;stroke-width:1.0;"/><rect fill="#F0F8FF" height="36.2969" rx="12.5" ry="12.5" style="stroke:#181818;stroke-width:1.5;" width="73" x="984" y="259.2617"/><text fill="#000000" font-family="sans-serif" font-size="14" lengthAdjust="spacing" textLength="53" x="994" y="282.2568">Tracing</text><path d="M934,277.4102 L944,277.4102 C959,277.4102 959,277.4102 974,277.4102 L984,277.4102 " fill="none" style="stroke:#181818;stroke-width:1.0;"/><rect fill="#F0F8FF" height="36.2969" rx="12.5" ry="12.5" style="stroke:#181818;stroke-width:1.5;" width="73" x="984" y="315.5586"/><text fill="#000000" font-family="sans-serif" font-size="14" lengthAdjust="spacing" textLength="53" x="994" y="338.5537">Metrics</text><path d="M934,277.4102 L944,277.4102 C959,277.4102 959,333.707 974,333.707 L984,333.707 " fill="none" style="stroke:#181818;stroke-width:1.0;"/><path d="M767,333.707 L777,333.707 C792,333.707 792,277.4102 807,277.4102 L817,277.4102 " fill="none" style="stroke:#181818;stroke-width:1.0;"/><rect fill="#F0FFFF" height="36.2969" rx="12.5" ry="12.5" style="stroke:#181818;stroke-width:1.5;" width="99" x="817" y="400.0039"/><text fill="#000000" font-family="sans-serif" font-size="14" lengthAdjust="spacing" textLength="79" x="827" y="422.999">Availability</text><rect fill="#F0FFFF" height="36.2969" rx="12.5" ry="12.5" style="stroke:#181818;stroke-width:1.5;" width="161" x="966" y="371.8555"/><text fill="#000000" font-family="sans-serif" font-size="14" lengthAdjust="spacing" textLength="141" x="976" y="394.8506">Elastic Deployment</text><path d="M916,418.1523 L926,418.1523 C941,418.1523 941,390.0039 956,390.0039 L966,390.0039 " fill="none" style="stroke:#181818;stroke-width:1.0;"/><rect fill="#F0FFFF" height="36.2969" rx="12.5" ry="12.5" style="stroke:#181818;stroke-width:1.5;" width="147" x="966" y="428.1523"/><text fill="#000000" font-family="sans-serif" font-size="14" lengthAdjust="spacing" textLength="127" x="976" y="451.1475">Service Discovery</text><path d="M916,418.1523 L926,418.1523 C941,418.1523 941,446.3008 956,446.3008 L966,446.3008 " fill="none" style="stroke:#181818;stroke-width:1.0;"/><path d="M767,333.707 L777,333.707 C792,333.707 792,418.1523 807,418.1523 L817,418.1523 " fill="none" style="stroke:#181818;stroke-width:1.0;"/><rect fill="#ADD8E6" height="36.2969" rx="12.5" ry="12.5" style="stroke:#181818;stroke-width:1.5;" width="90" x="453" y="62.2227"/><text fill="#000000" font-family="sans-serif" font-size="14" lengthAdjust="spacing" textLength="70" x="463" y="85.2178">Front End</text><path d="M593,333.707 L583,333.707 C568,333.707 568,80.3711 553,80.3711 L543,80.3711 " fill="none" style="stroke:#181818;stroke-width:1.0;"/><rect fill="#90EE90" height="36.2969" rx="12.5" ry="12.5" style="stroke:#181818;stroke-width:1.5;" width="112" x="431" y="118.5195"/><text fill="#000000" font-family="sans-serif" font-size="14" lengthAdjust="spacing" textLength="92" x="441" y="141.5146">Access Layer</text><rect fill="#90EE90" height="36.2969" rx="12.5" ry="12.5" style="stroke:#181818;stroke-width:1.5;" width="127" x="254" y="20"/><text fill="#000000" font-family="sans-serif" font-size="14" lengthAdjust="spacing" textLength="107" x="264" y="42.9951">Load Balancing</text><path d="M431,136.668 L421,136.668 C406,136.668 406,38.1484 391,38.1484 L381,38.1484 " fill="none" style="stroke:#181818;stroke-width:1.0;"/><rect fill="#90EE90" height="36.2969" rx="12.5" ry="12.5" style="stroke:#181818;stroke-width:1.5;" width="127" x="254" y="76.2969"/><text fill="#000000" font-family="sans-serif" font-size="14" lengthAdjust="spacing" textLength="107" x="264" y="99.292">Access Control</text><path d="M431,136.668 L421,136.668 C406,136.668 406,94.4453 391,94.4453 L381,94.4453 " fill="none" style="stroke:#181818;stroke-width:1.0;"/><rect fill="#90EE90" height="36.2969" rx="12.5" ry="12.5" style="stroke:#181818;stroke-width:1.5;" width="156" x="225" y="132.5938"/><text fill="#000000" font-family="sans-serif" font-size="14" lengthAdjust="spacing" textLength="136" x="235" y="155.5889">Request Fowarding</text><rect fill="#90EE90" height="36.2969" rx="12.5" ry="12.5" style="stroke:#181818;stroke-width:1.5;" width="76" x="99" y="104.4453"/><text fill="#000000" font-family="sans-serif" font-size="14" lengthAdjust="spacing" textLength="56" x="109" y="127.4404">Routing</text><path d="M225,150.7422 L215,150.7422 C200,150.7422 200,122.5938 185,122.5938 L175,122.5938 " fill="none" style="stroke:#181818;stroke-width:1.0;"/><rect fill="#90EE90" height="36.2969" rx="12.5" ry="12.5" style="stroke:#181818;stroke-width:1.5;" width="165" x="10" y="160.7422"/><text fill="#000000" font-family="sans-serif" font-size="14" lengthAdjust="spacing" textLength="145" x="20" y="183.7373">Protocol Conversion</text><path d="M225,150.7422 L215,150.7422 C200,150.7422 200,178.8906 185,178.8906 L175,178.8906 " fill="none" style="stroke:#181818;stroke-width:1.0;"/><path d="M431,136.668 L421,136.668 C406,136.668 406,150.7422 391,150.7422 L381,150.7422 " fill="none" style="stroke:#181818;stroke-width:1.0;"/><rect fill="#90EE90" height="36.2969" rx="12.5" ry="12.5" style="stroke:#181818;stroke-width:1.5;" width="218" x="163" y="217.0391"/><text fill="#000000" font-family="sans-serif" font-size="14" lengthAdjust="spacing" textLength="198" x="173" y="240.0342">Other Supporting functions</text><path d="M431,136.668 L421,136.668 C406,136.668 406,235.1875 391,235.1875 L381,235.1875 " fill="none" style="stroke:#181818;stroke-width:1.0;"/><path d="M593,333.707 L583,333.707 C568,333.707 568,136.668 553,136.668 L543,136.668 " fill="none" style="stroke:#181818;stroke-width:1.0;"/><rect fill="#FFFF00" height="36.2969" rx="12.5" ry="12.5" style="stroke:#181818;stroke-width:1.5;" width="145" x="398" y="273.3359"/><text fill="#000000" font-family="sans-serif" font-size="14" lengthAdjust="spacing" textLength="125" x="408" y="296.3311">Business Services</text><rect fill="#FFFF00" height="36.2969" rx="12.5" ry="12.5" style="stroke:#181818;stroke-width:1.5;" width="165" x="183" y="273.3359"/><text fill="#000000" font-family="sans-serif" font-size="14" lengthAdjust="spacing" textLength="145" x="193" y="296.3311">Domain Knowledges</text><path d="M398,291.4844 L388,291.4844 C373,291.4844 373,291.4844 358,291.4844 L348,291.4844 " fill="none" style="stroke:#181818;stroke-width:1.0;"/><path d="M593,333.707 L583,333.707 C568,333.707 568,291.4844 553,291.4844 L543,291.4844 " fill="none" style="stroke:#181818;stroke-width:1.0;"/><rect fill="#FFD700" height="36.2969" rx="12.5" ry="12.5" style="stroke:#181818;stroke-width:1.5;" width="118" x="425" y="329.6328"/><text fill="#000000" font-family="sans-serif" font-size="14" lengthAdjust="spacing" textLength="98" x="435" y="352.6279">Data Services</text><rect fill="#FFD700" height="36.2969" rx="12.5" ry="12.5" style="stroke:#181818;stroke-width:1.5;" width="165" x="210" y="329.6328"/><text fill="#000000" font-family="sans-serif" font-size="14" lengthAdjust="spacing" textLength="145" x="220" y="352.6279">Domain Knowledges</text><path d="M425,347.7813 L415,347.7813 C400,347.7813 400,347.7813 385,347.7813 L375,347.7813 " fill="none" style="stroke:#181818;stroke-width:1.0;"/><path d="M593,333.707 L583,333.707 C568,333.707 568,347.7813 553,347.7813 L543,347.7813 " fill="none" style="stroke:#181818;stroke-width:1.0;"/><rect fill="#FFC0CB" height="36.2969" rx="12.5" ry="12.5" style="stroke:#181818;stroke-width:1.5;" width="108" x="435" y="414.0781"/><text fill="#000000" font-family="sans-serif" font-size="14" lengthAdjust="spacing" textLength="88" x="445" y="437.0732">Middlewares</text><rect fill="#FFC0CB" height="36.2969" rx="12.5" ry="12.5" style="stroke:#181818;stroke-width:1.5;" width="49" x="336" y="385.9297"/><text fill="#000000" font-family="sans-serif" font-size="14" lengthAdjust="spacing" textLength="29" x="346" y="408.9248">RPC</text><path d="M435,432.2266 L425,432.2266 C410,432.2266 410,404.0781 395,404.0781 L385,404.0781 " fill="none" style="stroke:#181818;stroke-width:1.0;"/><rect fill="#FFC0CB" height="36.2969" rx="12.5" ry="12.5" style="stroke:#181818;stroke-width:1.5;" width="107" x="278" y="442.2266"/><text fill="#000000" font-family="sans-serif" font-size="14" lengthAdjust="spacing" textLength="87" x="288" y="465.2217">Data Access</text><path d="M435,432.2266 L425,432.2266 C410,432.2266 410,460.375 395,460.375 L385,460.375 " fill="none" style="stroke:#181818;stroke-width:1.0;"/><path d="M593,333.707 L583,333.707 C568,333.707 568,432.2266 553,432.2266 L543,432.2266 " fill="none" style="stroke:#181818;stroke-width:1.0;"/><rect fill="#D3D3D3" height="36.2969" rx="12.5" ry="12.5" style="stroke:#181818;stroke-width:1.5;" width="115" x="428" y="554.8203"/><text fill="#000000" font-family="sans-serif" font-size="14" lengthAdjust="spacing" textLength="95" x="438" y="577.8154">Data Storage</text><rect fill="#D3D3D3" height="36.2969" rx="12.5" ry="12.5" style="stroke:#181818;stroke-width:1.5;" width="88" x="290" y="498.5234"/><text fill="#000000" font-family="sans-serif" font-size="14" lengthAdjust="spacing" textLength="68" x="300" y="521.5186">Database</text><path d="M428,572.9688 L418,572.9688 C403,572.9688 403,516.6719 388,516.6719 L378,516.6719 " fill="none" style="stroke:#181818;stroke-width:1.0;"/><rect fill="#D3D3D3" height="36.2969" rx="12.5" ry="12.5" style="stroke:#181818;stroke-width:1.5;" width="65" x="313" y="554.8203"/><text fill="#000000" font-family="sans-serif" font-size="14" lengthAdjust="spacing" textLength="45" x="323" y="577.8154">Queue</text><path d="M428,572.9688 L418,572.9688 C403,572.9688 403,572.9688 388,572.9688 L378,572.9688 " fill="none" style="stroke:#181818;stroke-width:1.0;"/><rect fill="#D3D3D3" height="36.2969" rx="12.5" ry="12.5" style="stroke:#181818;stroke-width:1.5;" width="64" x="314" y="611.1172"/><text fill="#000000" font-family="sans-serif" font-size="14" lengthAdjust="spacing" textLength="44" x="324" y="634.1123">Cache</text><path d="M428,572.9688 L418,572.9688 C403,572.9688 403,629.2656 388,629.2656 L378,629.2656 " fill="none" style="stroke:#181818;stroke-width:1.0;"/><path d="M593,333.707 L583,333.707 C568,333.707 568,572.9688 553,572.9688 L543,572.9688 " fill="none" style="stroke:#181818;stroke-width:1.0;"/><!--SRC=[RLFBRjim4BppAnRenKxXe763el0fyQj5AY6kPUTI-B2YrZ8HYbJvKA1yVIbBHcqhHyxi3dV9cGVhqBX2gAp0ah7Fi1XnNHHaE45IMqS5C2Pfxy2AZ1YxkVdpIOhyu5BfQGTBevM3XShEcDmGgHqySaxMGeGrcK1UiP763AOeKN6XyZxVTS-2lD6opw_fhoVhOAdVq6ITn7MDzkvZPcMqqrpBHhyYOuLM_IkUtO4C9BuijMbqOEyLTw7KjilM9AL-sy7KMw6QOHCobGXZjr8dUguB50f-AVqcASkfwywrp0A93g_wEkBZhbAernt48iiaXSLFFIsyNitEZqVjzXqlVwS-tUkqmPmkD-_856sV-Et9zz4PyaDm1ZCDT6OJb66frYRFQNZb2bCXXQjRWJCsqdaFsnZyRumpF2Pd1EyMmdTl0lPOeP2NuYsna6YTu32dKkgw8EKkwExTOIuirs70ch472a4uXM4LtEcsSGITHU3kTlnb_FNsxZubX-F1Lhs6xr4G0bCAIU14GKCs-B6Am6hV92WJDeoR-iOrG_Q45SBQgwPk0irfi8c7a2nEO0XI9KAYZfC-lSHj4VpKBYcrEnP_knzDXJkE7ipv4hCvxT7B9eDSDpcOm7Qp77rd4QhSXz-T02asq-42KmSk-GS0]--></g></svg>